<svg width="38" height="38" viewBox="0 0 38 38" fill="none" xmlns="http://www.w3.org/2000/svg">
<path fill-rule="evenodd" clip-rule="evenodd" d="M11.442 0.776748C13.397 0.686748 14.0203 0.666748 19.0003 0.666748C23.9803 0.666748 24.6037 0.688415 26.557 0.776748C28.5103 0.865081 29.8437 1.17675 31.0103 1.62841C32.232 2.09008 33.3403 2.81175 34.257 3.74508C35.1903 4.66008 35.9103 5.76675 36.3703 6.99008C36.8237 8.15675 37.1337 9.49008 37.2237 11.4401C37.3137 13.3984 37.3337 14.0217 37.3337 19.0001C37.3337 23.9801 37.312 24.6034 37.2237 26.5584C37.1353 28.5084 36.8237 29.8417 36.3703 31.0084C35.9103 32.2319 35.1891 33.3404 34.257 34.2567C33.3403 35.1901 32.232 35.9101 31.0103 36.3701C29.8437 36.8234 28.5103 37.1334 26.5603 37.2234C24.6037 37.3134 23.9803 37.3334 19.0003 37.3334C14.0203 37.3334 13.397 37.3117 11.442 37.2234C9.49199 37.1351 8.15866 36.8234 6.99199 36.3701C5.76853 35.91 4.66003 35.1888 3.74366 34.2567C2.81096 33.3412 2.08918 32.2332 1.62866 31.0101C1.17699 29.8434 0.866992 28.5101 0.776992 26.5601C0.686992 24.6017 0.666992 23.9784 0.666992 19.0001C0.666992 14.0201 0.688659 13.3967 0.776992 11.4434C0.865326 9.49008 1.17699 8.15675 1.62866 6.99008C2.08986 5.76688 2.81219 4.65894 3.74533 3.74341C4.66039 2.81092 5.76778 2.08915 6.99033 1.62841C8.15699 1.17675 9.49033 0.866748 11.4403 0.776748H11.442ZM26.4087 4.07675C24.4753 3.98841 23.8953 3.97008 19.0003 3.97008C14.1053 3.97008 13.5253 3.98841 11.592 4.07675C9.80366 4.15841 8.83366 4.45675 8.18699 4.70842C7.33199 5.04175 6.72033 5.43675 6.07866 6.07842C5.4704 6.67017 5.00229 7.39055 4.70866 8.18675C4.45699 8.83342 4.15866 9.80342 4.07699 11.5917C3.98866 13.5251 3.97033 14.1051 3.97033 19.0001C3.97033 23.8951 3.98866 24.4751 4.07699 26.4084C4.15866 28.1967 4.45699 29.1667 4.70866 29.8134C5.00199 30.6084 5.47033 31.3301 6.07866 31.9217C6.67033 32.5301 7.39199 32.9984 8.18699 33.2918C8.83366 33.5434 9.80366 33.8418 11.592 33.9234C13.5253 34.0117 14.1037 34.0301 19.0003 34.0301C23.897 34.0301 24.4753 34.0117 26.4087 33.9234C28.197 33.8418 29.167 33.5434 29.8137 33.2918C30.6687 32.9584 31.2803 32.5634 31.922 31.9217C32.5303 31.3301 32.9987 30.6084 33.292 29.8134C33.5437 29.1667 33.842 28.1967 33.9237 26.4084C34.012 24.4751 34.0303 23.8951 34.0303 19.0001C34.0303 14.1051 34.012 13.5251 33.9237 11.5917C33.842 9.80342 33.5437 8.83342 33.292 8.18675C32.9587 7.33175 32.5637 6.72008 31.922 6.07842C31.3302 5.4702 30.6098 5.0021 29.8137 4.70842C29.167 4.45675 28.197 4.15841 26.4087 4.07675ZM16.6587 24.6517C17.9664 25.1961 19.4226 25.2696 20.7785 24.8596C22.1345 24.4496 23.306 23.5816 24.093 22.4038C24.88 21.226 25.2338 19.8115 25.0937 18.4019C24.9537 16.9923 24.3287 15.675 23.3253 14.6751C22.6857 14.0359 21.9123 13.5464 21.0609 13.242C20.2094 12.9376 19.301 12.8257 18.4012 12.9144C17.5013 13.0032 16.6322 13.2904 15.8567 13.7553C15.0811 14.2202 14.4182 14.8513 13.9158 15.6032C13.4134 16.355 13.084 17.2089 12.9512 18.1033C12.8184 18.9978 12.8856 19.9106 13.1479 20.7759C13.4102 21.6413 13.8611 22.4378 14.4682 23.108C15.0753 23.7781 15.8234 24.3054 16.6587 24.6517ZM12.337 12.3367C13.212 11.4617 14.2509 10.7676 15.3942 10.294C16.5375 9.82045 17.7628 9.5767 19.0003 9.5767C20.2378 9.5767 21.4632 9.82045 22.6065 10.294C23.7498 10.7676 24.7886 11.4617 25.6637 12.3367C26.5387 13.2118 27.2328 14.2506 27.7064 15.3939C28.18 16.5372 28.4237 17.7626 28.4237 19.0001C28.4237 20.2376 28.18 21.463 27.7064 22.6063C27.2328 23.7495 26.5387 24.7884 25.6637 25.6634C23.8964 27.4306 21.4996 28.4235 19.0003 28.4235C16.5011 28.4235 14.1042 27.4306 12.337 25.6634C10.5698 23.8962 9.57695 21.4993 9.57695 19.0001C9.57695 16.5008 10.5698 14.104 12.337 12.3367ZM30.5137 10.9801C30.7305 10.7755 30.9041 10.5296 31.0242 10.2567C31.1442 9.98386 31.2083 9.6897 31.2127 9.39163C31.217 9.09357 31.1615 8.79766 31.0495 8.52143C30.9374 8.2452 30.771 7.99427 30.5603 7.78348C30.3495 7.57269 30.0985 7.40634 29.8223 7.29428C29.5461 7.18221 29.2502 7.12671 28.9521 7.13105C28.654 7.1354 28.3599 7.1995 28.087 7.31958C27.8142 7.43965 27.5682 7.61324 27.3637 7.83008C26.9658 8.2518 26.748 8.81195 26.7565 9.39163C26.7649 9.97131 26.999 10.5249 27.4089 10.9348C27.8189 11.3448 28.3724 11.5788 28.9521 11.5872C29.5318 11.5957 30.0919 11.3779 30.5137 10.9801Z" fill="white"/>
</svg>
