<svg width="40" height="34" viewBox="0 0 40 34" fill="none" xmlns="http://www.w3.org/2000/svg">
<path d="M38.3337 1.99991C36.7376 3.12571 34.9705 3.98676 33.1003 4.54991C32.0966 3.39577 30.7625 2.57773 29.2787 2.20646C27.7949 1.83518 26.2328 1.92857 24.8038 2.474C23.3748 3.01943 22.1477 3.99058 21.2886 5.25611C20.4295 6.52163 19.9798 8.02047 20.0003 9.54991V11.2166C17.0714 11.2925 14.1691 10.6429 11.552 9.32566C8.9349 8.00838 6.68419 6.06431 5.00033 3.66658C5.00033 3.66658 -1.66634 18.6666 13.3337 25.3332C9.90121 27.6632 5.81225 28.8315 1.66699 28.6666C16.667 36.9999 35.0003 28.6666 35.0003 9.49991C34.9988 9.03567 34.9542 8.57257 34.867 8.11658C36.568 6.43907 37.7684 4.3211 38.3337 1.99991Z" stroke="white" stroke-width="2.5" stroke-linecap="round" stroke-linejoin="round"/>
</svg>
