<svg width="38" height="28" viewBox="0 0 38 28" fill="none" xmlns="http://www.w3.org/2000/svg">
<path d="M38 13.8793C38 13.7845 38 13.6768 37.9958 13.5519C37.9915 13.2028 37.983 12.8107 37.9746 12.3927C37.9406 11.1905 37.8812 9.99261 37.7879 8.86365C37.6607 7.30809 37.4741 6.01108 37.2196 5.03724C36.9511 4.02096 36.4247 3.09408 35.6932 2.34926C34.9616 1.60444 34.0504 1.06776 33.0507 0.792859C31.8504 0.465374 29.5009 0.26285 26.1929 0.137888C24.6194 0.0775622 22.9357 0.0387809 21.252 0.0172358C20.6625 0.00861777 20.1154 0.00430902 19.6234 0H18.3766C17.8846 0.00430902 17.3375 0.00861777 16.748 0.0172358C15.0643 0.0387809 13.3806 0.0775622 11.8071 0.137888C8.49911 0.267159 6.14531 0.469683 4.94933 0.792859C3.94929 1.06708 3.03775 1.60354 2.30606 2.34846C1.57437 3.09339 1.04822 4.02062 0.780357 5.03724C0.521652 6.01108 0.339286 7.30809 0.212054 8.86365C0.11875 9.99261 0.0593749 11.1905 0.0254464 12.3927C0.0127231 12.8107 0.00848208 13.2028 0.00424101 13.5519C0.00424101 13.6768 0 13.7845 0 13.8793V14.1207C0 14.2154 -6.47768e-08 14.3232 0.00424101 14.4481C0.00848208 14.7972 0.0169642 15.1893 0.0254464 15.6073C0.0593749 16.8095 0.11875 18.0074 0.212054 19.1363C0.339286 20.6919 0.525893 21.9889 0.780357 22.9628C1.32321 25.0268 2.91786 26.6556 4.94933 27.2071C6.14531 27.5346 8.49911 27.7371 11.8071 27.8621C13.3806 27.9224 15.0643 27.9612 16.748 27.9828C17.3375 27.9914 17.8846 27.9957 18.3766 28H19.6234C20.1154 27.9957 20.6625 27.9914 21.252 27.9828C22.9357 27.9612 24.6194 27.9224 26.1929 27.8621C29.5009 27.7328 31.8547 27.5303 33.0507 27.2071C35.0821 26.6556 36.6768 25.0311 37.2196 22.9628C37.4783 21.9889 37.6607 20.6919 37.7879 19.1363C37.8812 18.0074 37.9406 16.8095 37.9746 15.6073C37.9873 15.1893 37.9915 14.7972 37.9958 14.4481C37.9958 14.3232 38 14.2154 38 14.1207V13.8793ZM34.9464 14.1034C34.9464 14.1939 34.9464 14.293 34.9422 14.4094C34.9379 14.7455 34.9295 15.116 34.921 15.5168C34.8913 16.663 34.8319 17.8092 34.7429 18.8735C34.6283 20.261 34.4672 21.3986 34.2679 22.1613C34.0049 23.1567 33.233 23.9452 32.2576 24.2081C31.367 24.4494 29.1234 24.6433 26.0741 24.7596C24.5304 24.8199 22.8679 24.8587 21.2096 24.8803C20.6286 24.8889 20.09 24.8932 19.6065 24.8932H18.3935L16.7904 24.8803C15.1321 24.8587 13.4739 24.8199 11.9259 24.7596C8.87656 24.639 6.62879 24.4494 5.74241 24.2081C4.76696 23.9409 3.99509 23.1567 3.73214 22.1613C3.53281 21.3986 3.37165 20.261 3.25714 18.8735C3.16808 17.8092 3.11295 16.663 3.07902 15.5168C3.06629 15.116 3.06205 14.7411 3.05781 14.4094C3.05781 14.293 3.05357 14.1896 3.05357 14.1034V13.8966C3.05357 13.8061 3.05357 13.707 3.05781 13.5906C3.06205 13.2545 3.07054 12.884 3.07902 12.4832C3.10871 11.337 3.16808 10.1908 3.25714 9.1265C3.37165 7.739 3.53281 6.60142 3.73214 5.83872C3.99509 4.84334 4.76696 4.05479 5.74241 3.79194C6.63304 3.55063 8.87656 3.35672 11.9259 3.24038C13.4696 3.18005 15.1321 3.14127 16.7904 3.11973C17.3714 3.11111 17.91 3.1068 18.3935 3.1068H19.6065L21.2096 3.11973C22.8679 3.14127 24.5261 3.18005 26.0741 3.24038C29.1234 3.36103 31.3712 3.55063 32.2576 3.79194C33.233 4.05909 34.0049 4.84334 34.2679 5.83872C34.4672 6.60142 34.6283 7.739 34.7429 9.1265C34.8319 10.1908 34.8871 11.337 34.921 12.4832C34.9337 12.884 34.9379 13.2588 34.9422 13.5906C34.9422 13.707 34.9464 13.8104 34.9464 13.8966V14.1034ZM15.2254 19.7741L25.0647 13.9569L15.2254 8.22591V19.7741Z" fill="white"/>
</svg>
